<svg xmlns="http://www.w3.org/2000/svg" viewBox="0 0 64 64">
  <circle cx="32" cy="32" r="30" fill="#F7931A"/>
  <path d="M44.4,23.6c-0.4-4.1-3.9-5.5-8.3-5.9l0-5.9l-3.6,0l0,5.7c-0.9,0-1.9,0-2.8,0l0-5.7l-3.6,0l0,5.9c-0.8,0-1.5,0-2.2,0
    l0,0l-4.9,0l0,3.8c0,0,2.7-0.1,2.6,0c1.5,0,2,0.8,2.1,1.6l0,6.7v9.3c-0.1,0.5-0.4,1.3-1.6,1.3c0.1,0.1-2.6,0-2.6,0L20,44.6l4.7,0
    c0.9,0,1.7,0,2.5,0l0,6l3.6,0l0-5.9c1,0,1.9,0,2.8,0l0,5.9l3.6,0l0-6c5.5-0.3,9.5-1.7,10-7c0.4-4.3-1.6-6.2-4.9-7
    C43.5,29.8,44.7,28.2,44.4,23.6z M38.5,37c0,4.2-7.2,3.7-9.5,3.7l0-7.4C31.3,33.4,38.5,32.8,38.5,37z M37.5,24.7
    c0,3.8-6,3.3-8,3.3l0-6.7C31.6,21.4,37.5,20.9,37.5,24.7z" 
    fill="white"/>
</svg>